<svg xmlns="http://www.w3.org/2000/svg" viewBox="0 0 800 600">
  <!-- Light background for visibility -->
  <rect width="800" height="600" fill="#1a1a2e"/>
  
  <!-- Grid pattern -->
  <defs>
    <pattern id="grid" width="40" height="40" patternUnits="userSpaceOnUse">
      <path d="M 40 0 L 0 0 0 40" fill="none" stroke="#2a2a4e" strokeWidth="1"/>
    </pattern>
  </defs>
  <rect width="800" height="600" fill="url(#grid)"/>
  
  <!-- Glowing orb -->
  <circle cx="400" cy="250" r="120" fill="#00D9FF" opacity="0.3"/>
  <circle cx="400" cy="250" r="80" fill="#00D9FF" opacity="0.4"/>
  <circle cx="400" cy="250" r="40" fill="#00D9FF"/>
  
  <!-- AI Brain -->
  <rect x="350" y="180" width="100" height="140" rx="20" fill="#0F141C" stroke="#00D9FF" strokeWidth="3"/>
  <circle cx="400" cy="230" r="18" fill="#00D9FF"/>
  <circle cx="375" cy="270" r="10" fill="#00D9FF"/>
  <circle cx="425" cy="270" r="10" fill="#00D9FF"/>
  <circle cx="400" cy="295" r="10" fill="#00D9FF"/>
  
  <!-- Connections -->
  <path d="M400 248 L400 295" stroke="#00D9FF" strokeWidth="2" opacity="0.6"/>
  <path d="M375 270 L400 295" stroke="#00D9FF" strokeWidth="2" opacity="0.6"/>
  <path d="M425 270 L400 295" stroke="#00D9FF" strokeWidth="2" opacity="0.6"/>
  
  <!-- Decor -->
  <circle cx="150" cy="150" r="4" fill="#00D9FF"/>
  <circle cx="650" cy="180" r="4" fill="#00D9FF"/>
  <circle cx="300" cy="120" r="2" fill="#00D9FF"/>
  <circle cx="500" cy="130" r="2" fill="#00D9FF"/>
  
  <!-- Badges -->
  <rect x="120" y="480" width="120" height="30" rx="15" fill="#0F141C" stroke="#00D9FF"/>
  <text x="180" y="500" font-family="monospace" font-size="12" fill="#00D9FF" text-anchor="middle">MEMORY</text>
  
  <rect x="560" y="490" width="120" height="30" rx="15" fill="#0F141C" stroke="#00D9FF"/>
  <text x="620" y="510" font-family="monospace" font-size="12" fill="#00D9FF" text-anchor="middle">TOOLS</text>
</svg>